# xmcd CD database file
#
# Track frame offsets:
#	150
#	18993
#	38982
#	61023
#	76161
#	86770
#	98760
#	114473
#	144273
#	173619
#	205492
#	232464
#
# Disc length: 3344 seconds
#
# Revision: 0
# Processed by: cddbd v1.5.2PL0 Copyright (c) Steve Scherf et al.
# Submitted via: CDex 1.70beta2
#
DISCID=970d0e0c
DTITLE=Various Artist - 官能ジャズ
DYEAR=2014
DGENRE=Jazz
TTITLE0=I Love You，Porgy
TTITLE1=When I Fall In Love
TTITLE2=Speak Low
TTITLE3=I Fall In Love Too Easily
TTITLE4=My Funny Valentine
TTITLE5=My Man
TTITLE6=Angel Eyes
TTITLE7=Lover Man
TTITLE8=You Don’t Know What Love Is
TTITLE9=Django
TTITLE10=Round About Midnight
TTITLE11=You’d Be So Nice To Come Home To
EXTD=YEAR: 2014
EXTT0=
EXTT1=
EXTT2=
EXTT3=
EXTT4=
EXTT5=
EXTT6=
EXTT7=
EXTT8=
EXTT9=
EXTT10=
EXTT11=
PLAYORDER=
